<svg xmlns="http://www.w3.org/2000/svg" viewBox="-10 0 171 171">
    <path fill="#4396D9" d="M126.003 55.092c21.971 3.354 32.037 18.044 32.037 18.044l3.28 4.401-4.35 3.424s-15.79 12.427-35.663 10.951c-12.338-1.98-23.114-8.966-29.3-13.765a62.327 62.327 0 0 0-2.31 5.542 35.006 35.006 0 0 0-1.747-1.882c-3.69-3.69-8.568-6.837-13.935-8.991a78.43 78.43 0 0 1 8.374-5.44c-4.675-6.026-10.27-15.418-12.12-27.453h-.002c-1.462-22.2 9.137-35.616 9.137-35.616L82.807 0l4.433 3.316s16.09 12.036 19.808 31.613c.782 7.591-.39 15.103-2.112 21.446 6.02-1.611 13.225-2.48 21.067-1.283zM88.254 170.923c-2.925.463-14.415.301-17.31.073-11.652-1.241-19.756-5.663-19.756-5.663l-1.652-.901-.736-1.721s-2.38-5.261-4.289-13.347c4.578 1.763 9.47 2.805 14.294 2.805 10.807 0 22.126-5.052 29.145-12.072 1.79-1.788 3.45-3.856 4.932-6.123 6.898 13.675 16.37 21.616 16.37 21.616l6.622 5.552-7.376 4.139s-4.776 2.68-20.244 5.642zm-39.286-69.237a90.094 90.094 0 0 1 11.076-15.929c6.89.252 11.87 2.639 16.593 7.363 5.003 5.003 7.385 10.293 7.385 17.832 0 7.539-2.382 12.829-7.385 17.832s-10.293 7.385-17.832 7.385c-6.942 0-11.977-2.02-16.637-6.246.017-9.057 1.721-18.95 6.8-28.237z" />
    <path stroke="#4396D9" stroke-linejoin="round" stroke-linecap="round" stroke-width="12" fill="none" d="M93.022 110.952c0 9.377-3.884 18.059-10.02 24.196-6.138 6.137-14.82 10.021-24.197 10.021-9.377 0-18.047-3.896-24.196-10.022a31.615 31.615 0 0 1-1.56-1.668L1.276 159.774 0 158.234l31.78-26.3c-4.464-5.776-7.192-12.962-7.192-20.982 0-9.377 3.884-18.059 10.021-24.196 6.137-6.137 14.82-10.021 24.196-10.021 9.377 0 18.06 3.884 24.196 10.021 6.137 6.137 10.021 14.819 10.021 24.196zm-59.85 21.128-.002.001.103.122-.12-.145.018.022zm48.414-43.909c-5.885-5.885-13.812-9.436-22.78-9.436-8.97 0-16.897 3.551-22.782 9.436-5.885 5.885-9.436 13.812-9.436 22.781s3.551 16.896 9.436 22.781c5.885 5.885 13.812 9.436 22.781 9.436 8.97 0 16.896-3.551 22.781-9.436 5.885-5.885 9.436-13.812 9.436-22.781s-3.55-16.896-9.436-22.781zm-55.998 22.781a33.07 33.07 0 0 1 0 0zm9.784 23.544c5.995 5.99 14.288 9.673 23.433 9.673-9.145 0-17.426-3.695-23.433-9.673z" />
</svg>